<svg xmlns="http://www.w3.org/2000/svg" xmlns:xlink="http://www.w3.org/1999/xlink" version="1.1" x="0px" y="0px" viewBox="0 0 100 100" enable-background="new 0 0 100 100" xml:space="preserve"><path fill-rule="evenodd" fill="#fff" clip-rule="evenodd" d="M76.2,23.9c1.9,1.9,3.4,3.667,4.5,5.3c3.801,5.434,5.884,11.6,6.25,18.5L87.05,50  c0,10.233-3.65,18.95-10.95,26.15C69.067,83.216,60.6,86.833,50.7,87l5.851,5.9c0.267,0.267,0.399,0.566,0.399,0.9  s-0.133,0.617-0.399,0.85C56.317,94.883,56.034,95,55.7,95c-0.366,0-0.666-0.117-0.899-0.35l-8-8c-0.467-0.4-0.55-0.883-0.25-1.45  l0.05-0.05l0.2-0.3l8-7.85c0.267-0.233,0.566-0.35,0.899-0.35c0.334,0,0.617,0.117,0.851,0.35c0.267,0.267,0.399,0.566,0.399,0.9  c0,0.333-0.133,0.617-0.399,0.85L50.7,84.5c9.2-0.133,17.084-3.5,23.65-10.1c6.767-6.7,10.166-14.833,10.2-24.4  c-1.5,0.966-2.483,1.566-2.95,1.8c-0.334,0.167-0.617,0.25-0.85,0.25c-1.566,0-3.033-1.183-4.4-3.55  c-0.834-1.367-1.483-2.167-1.95-2.4c0,0.033-0.283,0.216-0.85,0.55C73.184,46.917,73,47.133,73,47.3c0,0.567,0.383,1.067,1.149,1.5  c1.667,0.9,2.5,2.133,2.5,3.7c0,0.333-0.216,0.9-0.649,1.7c-0.734,1.333-2.283,3.85-4.65,7.55l-0.5,0.4  c-1.767,1-3.117,1.167-4.05,0.5c-0.866-0.6-1.167-1.733-0.9-3.4v-0.1l0.5-2.25c0-2.4-1.399-3.95-4.2-4.65  c-2.333-0.567-3.583-0.9-3.75-1c-1.5-0.6-2.25-1.667-2.25-3.2c0-3.667,2.184-5.833,6.551-6.5l1-0.2c0.232-0.367,0.666-0.8,1.3-1.3  L65.2,39.9l-1,0.3c-1.399,0.333-2.399,0.5-3,0.5c-0.8,0-1.366-0.116-1.699-0.35c-0.634-0.333-0.95-1.05-0.95-2.15  c0-1.633,0.866-2.683,2.6-3.15c0.733-0.2,1.733-0.4,3-0.6c0.601-0.167,1.284-0.583,2.05-1.25c1.268-1.133,2.018-1.75,2.25-1.85  c0.667-0.4,1.734-0.733,3.2-1c0.4-0.134,0.616-0.467,0.65-1c0.1-1.8,0.5-3.35,1.2-4.65c-2.134-1.967-4.351-3.616-6.65-4.95  c-0.3-0.167-0.5-0.417-0.6-0.75c-0.066-0.333-0.018-0.65,0.149-0.95c0.167-0.3,0.417-0.5,0.75-0.6c0.333-0.066,0.65-0.017,0.95,0.15  c2.767,1.533,5.4,3.55,7.9,6.05h0.05L76.2,23.9z M53,15.15l-7.9,7.8c-0.233,0.267-0.533,0.4-0.9,0.4c-0.333,0-0.616-0.134-0.85-0.4  c-0.233-0.233-0.35-0.533-0.35-0.9c0-0.333,0.116-0.617,0.35-0.85l5.8-5.75c-3.167,0.033-6.316,0.5-9.45,1.4  c0.167,0.433,0.25,0.917,0.25,1.45c0,2.333-1.083,4.567-3.25,6.7c-1.333,1.333-2.184,2.316-2.55,2.95  c0.267,0.267,0.851,0.567,1.75,0.9c2.233,0.933,3.351,2.25,3.351,3.95c0,2.034-0.768,3.55-2.301,4.55  c-0.766,0.5-2.149,0.966-4.149,1.4c-1.667,0.4-2.8,0.783-3.4,1.15c-0.767,0.566-1.149,1.4-1.149,2.5l0.85,3.65  c0.6,2.433,0.9,4.15,0.9,5.15c0,0.167,0.199,0.3,0.6,0.4c0.334,0.1,0.617,0.15,0.85,0.15h3.95c1.967,0,3.5,0.85,4.601,2.55  c0.566,0.967,1.85,1.45,3.85,1.45c2.233,0.066,4.133,1.3,5.7,3.7c0.833,1.333,1.05,2.5,0.649,3.5  c-0.467,1.134-1.516,1.917-3.149,2.35c-0.7,0.167-1.517,0.95-2.45,2.35c-1.434,2.233-2.95,5.783-4.55,10.65  c-0.167,0.6-0.55,0.9-1.15,0.9c-2.767,0-4.399-1.933-4.899-5.8c-0.434-3-0.783-4.917-1.051-5.75c-0.533-0.434-2.166-1.1-4.899-2  c-3.034-1.066-4.55-2.7-4.55-4.9c0-0.5,0.399-1.717,1.199-3.65c0.566-1.367,0.9-2.217,1-2.55c0-2.966-0.766-4.683-2.3-5.15  c-1.233-0.267-2.083-0.5-2.55-0.7c-1.133-0.566-1.7-1.583-1.7-3.05c0-0.633,0.233-1.6,0.7-2.9l0.35-0.95l-3.5-1.55  c-0.866,2.933-1.3,6.183-1.3,9.75c0,9.533,3.366,17.667,10.101,24.4c2.266,2.333,4.766,4.267,7.5,5.8c0.3,0.167,0.5,0.417,0.6,0.75  c0.066,0.333,0.017,0.65-0.15,0.95c-0.199,0.4-0.566,0.6-1.1,0.6c-0.2,0-0.4-0.05-0.6-0.15c-2.867-1.6-5.533-3.667-8-6.2  C16.55,68.95,12.95,60.233,12.95,50c0-4.3,0.601-8.25,1.801-11.85V38.1c1.699-5.233,4.699-10,9-14.3c4.066-4.067,8.633-7,13.699-8.8  H37.5c3.666-1.3,7.566-1.983,11.699-2.05l-5.85-5.9C43.117,6.816,43,6.55,43,6.25c0-0.333,0.116-0.633,0.35-0.9  C43.617,5.117,43.917,5,44.25,5c0.333,0,0.616,0.117,0.85,0.35l7.95,7.95c0.466,0.4,0.55,0.883,0.25,1.45l-0.05,0.05L53,15.15z   M63.3,33.85l-1.25,0.2h-0.2c-0.7,0-1.1-0.35-1.2-1.05c-0.033-0.333,0.05-0.633,0.25-0.9s0.467-0.434,0.8-0.5l1.25-0.2  c0.334-0.033,0.634,0.05,0.9,0.25s0.416,0.467,0.45,0.8c0.066,0.333,0,0.634-0.2,0.9C63.9,33.65,63.633,33.816,63.3,33.85z   M64.6,36.85c-1.066,0.167-1.983,0.35-2.75,0.55c-0.533,0.167-0.8,0.417-0.8,0.75c0.466,0.066,1.316-0.066,2.55-0.4  c1.2-0.333,2.133-0.5,2.8-0.5c0.866,0,1.5,0.2,1.9,0.6l0.25,0.3c0.167,0.4,0.25,0.85,0.25,1.35c0,0.333-0.134,0.65-0.4,0.95  c-0.267,0.3-0.866,0.817-1.8,1.55c-0.467,0.333-0.867,0.733-1.2,1.2c-0.2,0.333-0.483,0.517-0.85,0.55L63.15,44  c-1.767,0.267-3,0.816-3.7,1.65c-0.5,0.6-0.75,1.4-0.75,2.4c0,0.4,0.268,0.7,0.801,0.9l3.3,0.85c4.066,1.067,6.1,3.433,6.1,7.1  c0,0.434-0.149,1.25-0.45,2.45l-0.1,0.4l-0.05,0.8c0.333-0.1,0.7-0.25,1.1-0.45c2.7-4.2,4.267-6.8,4.7-7.8  c0-0.466-0.383-0.917-1.15-1.35c-1.633-0.866-2.449-2.083-2.449-3.65c0-1.033,0.533-1.933,1.6-2.7  c1.233-0.934,2.316-1.217,3.25-0.85c0.934,0.4,1.983,1.566,3.15,3.5c0.732,1.267,1.416,2.033,2.05,2.3l3.899-2.45  c-0.5-6.134-2.434-11.617-5.8-16.45c-0.899-1.333-1.983-2.684-3.25-4.05c-0.333,0.8-0.55,1.767-0.649,2.9  c-0.101,1.733-0.934,2.833-2.5,3.3H72.1c-1.166,0.2-1.95,0.417-2.35,0.65l-1.9,1.6c-0.934,0.9-1.95,1.483-3.05,1.75L64.6,36.85z   M37.5,18.3c0-0.267-0.033-0.466-0.101-0.6c-4.333,1.667-8.3,4.283-11.899,7.85c-3.667,3.733-6.334,7.833-8,12.3  c3,1.3,4.699,2.1,5.1,2.4c0.533,0.367,0.65,0.867,0.35,1.5L22.2,43.6c-0.366,1.033-0.55,1.716-0.55,2.05c0,0.434,0.101,0.7,0.3,0.8  c0.634,0.2,1.283,0.367,1.95,0.5H24c1.533,0.434,2.649,1.417,3.35,2.95c-0.133-0.867-0.367-1.967-0.7-3.3l-0.899-3.8v-0.3  c0-2.1,0.75-3.65,2.25-4.65c0.833-0.534,2.25-1.034,4.25-1.5c1.533-0.333,2.649-0.684,3.35-1.05c0.767-0.533,1.15-1.367,1.15-2.5  c0-0.6-0.601-1.133-1.801-1.6c-2.232-0.933-3.35-1.983-3.35-3.15c0-1,1.117-2.6,3.35-4.8C36.65,21.55,37.5,19.9,37.5,18.3z   M32.45,42.3H32.1c-0.633,0-1.033-0.3-1.2-0.9c-0.066-0.333-0.017-0.65,0.15-0.95c0.167-0.3,0.417-0.5,0.75-0.6l1.55-0.4  c0.334-0.066,0.65-0.017,0.95,0.15c0.3,0.167,0.5,0.417,0.6,0.75c0.067,0.333,0.017,0.65-0.149,0.95c-0.167,0.3-0.417,0.5-0.75,0.6  L32.45,42.3z M43.8,58.25c-2.833,0-4.8-0.867-5.9-2.6c-0.6-0.934-1.433-1.4-2.5-1.4H31.25c-1.467-0.133-2.5-0.583-3.101-1.35  l0.101,1.8c0,0.367-0.4,1.483-1.2,3.35C26.45,59.483,26.1,60.4,26,60.8c0,1,0.949,1.833,2.85,2.5c3.4,1.167,5.4,2.1,6,2.8  c0.233,0.233,0.434,0.65,0.6,1.25c0.301,1.066,0.634,2.966,1,5.7c0.234,1.9,0.783,3.05,1.65,3.45c2.8-8.4,5.566-12.95,8.3-13.65  c0.833-0.233,1.317-0.5,1.45-0.8c0.133-0.233-0.017-0.65-0.45-1.25C46.367,59.167,45.167,58.316,43.8,58.25z M46.1,68.35  c0.3,0.133,0.517,0.366,0.65,0.7c0.1,0.3,0.083,0.617-0.051,0.95l-0.649,1.45c-0.233,0.5-0.616,0.75-1.15,0.75l-0.5-0.15  c-0.3-0.133-0.517-0.35-0.649-0.65c-0.101-0.333-0.084-0.667,0.05-1l0.649-1.45c0.134-0.3,0.367-0.517,0.7-0.65  C45.45,68.2,45.766,68.216,46.1,68.35z"/></svg>
